<?xml version="1.0" encoding="utf-8"?>
<svg version="1.1" id="Layer_1"
xmlns="http://www.w3.org/2000/svg"
xmlns:xlink="http://www.w3.org/1999/xlink"
width="512px" height="512px"
xml:space="preserve">
<g id="PathID_1" transform="matrix(3.24454, 0, 0, 3.24454, 9.55, 21.6)" opacity="1">
<path style="fill:#FFFBFB;fill-opacity:1" d="M151.25 48.75Q147.4 77.7 113.5 102.75L89.4 119.8Q78.2 128.4 75.9 135.15L75.6 135.15Q73.95 123.95 81.65 114.5Q86.5 108.7 100.85 98.6Q116 88 122.25 81.25Q132.75 69.95 134.6 56Q135.95 46.05 130.95 36.3Q124.85 24.35 110.95 18.2Q98.9 13 87.35 17.6Q79.25 20.7 75.8 25.7Q72.7 21.2 60.05 17.6Q44.45 13 32.4 18.2Q18.5 24.35 12.25 36.3Q7.25 46.05 8.6 56Q10.8 72.2 20.95 88.2Q3.2 70.45 0.3 48.75Q-1.25 36.7 4.65 25.05Q12.05 10.75 28.65 3.45Q43.1 -2.9 59.4 2.5Q71.75 6.7 75.7 12.3Q79.65 6.7 92.15 2.5Q108.35 -2.9 122.75 3.45Q139.5 10.75 146.85 25.05Q152.8 36.7 151.25 48.75" />
</g>
<g id="PathID_2" transform="matrix(3.24454, 0, 0, 3.24454, 9.55, 21.6)" opacity="1">
</g>
<g id="PathID_3" transform="matrix(3.53808, 0, 0, 3.53808, 19.2, 300.35)" opacity="1">
<path style="fill:#203596;fill-opacity:1" d="M28.75 -7.35Q19.55 -0.1 12.1 -0.1Q7.9 -0.1 5.4 -2.6Q2.95 -5.1 2.95 -9.5Q2.95 -20.05 11.95 -29.2Q21 -38.4 30.7 -38.4Q33.55 -38.4 35.25 -37.35Q36.95 -36.35 36.95 -34.75Q36.95 -33.4 35.9 -31.7Q34.9 -30.05 33.9 -30.05Q33.25 -30.05 32.85 -31.1Q32.15 -32.7 31.3 -33.3Q30.5 -33.95 28.8 -33.95Q24.45 -33.95 19 -29.8Q13.6 -25.65 10.45 -20.3Q7.3 -14.95 7.3 -9.9Q7.3 -4.05 12.7 -4.05Q15.15 -4.05 18.4 -5.3Q21.65 -6.55 25.3 -9.05Q29 -11.55 29.8 -13.45Q30.6 -15.35 31.05 -18.65Q31.3 -20.4 33.65 -20.4Q36.15 -20.4 36.15 -18.85Q36.15 -18.15 35.4 -16.35Q34.2 -13.45 33.6 -11.05Q33 -8.7 32.5 -5.55Q32 -2.45 32 -1.15Q32 0.05 32.45 2.35L32.55 3.15Q32.55 4 31.85 4.8Q31.2 5.65 30.25 5.65Q29.15 5.65 28.1 4.8Q27.1 4 27.1 2.95Q27.1 2.15 28.25 -4.2L28.75 -7.35" />
</g>
<g id="PathID_4" transform="matrix(3.53808, 0, 0, 3.53808, 19.2, 300.35)" opacity="1">
</g>
<g id="PathID_5" transform="matrix(3.53808, 0, 0, 3.53808, 177.65, 300.35)" opacity="1">
<path style="fill:#DC1B16;fill-opacity:1" d="M39.85 -29.45Q37.4 -26.7 32.2 -19.65Q27.05 -12.6 24.95 -10.55Q22.85 -8.55 21.5 -8.55Q20.45 -8.55 19.45 -10.05Q18.5 -11.6 16.95 -16.3Q13.75 -25.8 12.95 -27.25Q12.65 -26.4 12.25 -24.5Q11.45 -20.45 10.15 -14.6Q7.55 -3.45 7.2 0.2Q7.15 0.65 6.4 1.15Q5.65 1.7 5.15 1.7Q4.25 1.7 3.5 0.8Q2.75 -0.1 2.75 -0.95Q2.75 -3.15 4.2 -8.65L6.35 -16.85Q8.35 -24.6 8.8 -28.25Q9.3 -31.9 9.3 -34Q9.3 -36.15 12.75 -36.15Q13.45 -36.15 14.25 -34.9Q15.05 -33.65 15.3 -32.7L16.1 -30.55L19.45 -21.2Q21.4 -15.45 21.85 -14.7Q22.35 -13.95 22.65 -13.95Q23.9 -14.25 31.65 -24.95Q40.3 -36.8 41.5 -36.8Q42.5 -36.8 43.7 -36Q44.95 -35.25 44.95 -34.65L43.5 -23.7Q42.95 -19.7 42.5 -14.15Q42.05 -8.6 42.05 -7.9Q42.05 -6.6 42.5 -5.05Q42.9 -3.65 42.9 -2.8Q42.9 -2.1 42.65 -0.8Q42.4 0.45 41.55 0.65Q40.75 0.9 40.25 0.9Q37.6 0.9 37.6 -3.45Q37.6 -7.45 39.35 -23.05L39.45 -24.6L39.75 -26.25Q40 -27.5 40 -28.35Q40 -29.2 39.85 -29.45" />
</g>
<g id="PathID_6" transform="matrix(3.53808, 0, 0, 3.53808, 177.65, 300.35)" opacity="1">
</g>
<g id="PathID_7" transform="matrix(3.53808, 0, 0, 3.53808, 351.3, 322.95)" opacity="1">
<path style="fill:#000000;fill-opacity:1" d="M24.2 -35.75Q24.4 -35.6 24.4 -34.55Q24.4 -33.45 24.2 -32.9L24.5 -31.85Q25.35 -28.9 26.15 -27Q27.15 -24.45 28.1 -21.55Q30.35 -14.8 32.75 -10Q35.15 -5.25 37.15 -3.3Q38.4 -2.05 38.7 -1.6Q39.05 -1.15 39.05 -0.5Q39.05 0.6 38.3 1.35Q37.55 2.1 36.55 2.1Q33.35 2.1 28.8 -7.95Q26.95 -11.95 26.6 -11.95Q25.4 -11.95 21.4 -11.2Q17.45 -10.5 14.2 -9.5Q12.3 -8.95 11.8 -8.95Q11.2 -8.95 10.5 -9.55Q10.4 -9.65 10.2 -9.65Q9.65 -9.65 7.85 -6.4Q4.85 -1.05 4.05 0Q3.25 1.05 2.3 1.05Q1.65 1.05 0.7 0.25Q-0.25 -0.55 -0.25 -1.35Q-0.25 -2.15 0.65 -3.5L4.3 -9Q9.25 -16.35 12.65 -22.75Q18.05 -33 19.5 -34.8Q20.95 -36.65 21.7 -36.65Q23.35 -36.65 24.2 -35.75M25.7 -15.9Q24.85 -17.9 23.15 -23.2Q21.3 -28.9 20.8 -30.1Q19.4 -27.2 16.55 -21.9L12 -13.3Q12.55 -13.7 14.8 -13.95Q16.5 -14.15 17.8 -14.4Q24.6 -15.8 25.7 -15.9" />
</g>
<g id="PathID_8" transform="matrix(3.53808, 0, 0, 3.53808, 351.3, 322.95)" opacity="1">
</g>
</svg>
